<svg width="512" height="512" xmlns="http://www.w3.org/2000/svg">

 <g>
  <title>background</title>
  <rect fill="none" id="canvas_background" height="514" width="514" y="-1" x="-1"/>
 </g>
 <g>
  <title>Layer 1</title>
  <path fill="#ffffff" id="svg_1" fill-rule="evenodd" d="m255.98951,276.983783c-40.981334,0 -252.120186,-170.157519 -252.120186,-170.157519l0,-18.696553c0,-23.166099 18.801472,-41.967572 42.009539,-41.967572l420.221294,0c23.229051,0 42.030523,18.801472 42.030523,41.967572l-0.335741,20.983786c0,0 -208.85162,167.870286 -251.805429,167.870286zm0,57.705411c44.926285,0 251.805429,-162.62434 251.805429,-162.62434l0.335741,251.805429c0,23.166099 -18.801472,41.967572 -42.030523,41.967572l-420.221294,0c-23.187083,0 -42.009539,-18.801472 -42.009539,-41.967572l0.335741,-251.805429c-0.020984,0 210.803112,162.62434 251.784446,162.62434z" clip-rule="evenodd"/>
 </g>
</svg>