<svg width="512" height="512" xmlns="http://www.w3.org/2000/svg" style="vector-effect: non-scaling-stroke;" stroke="null">

 <g stroke="null">
  <title stroke="null">background</title>
  <rect stroke="null" fill="none" id="canvas_background" height="514" width="514" y="-1" x="-1"/>
 </g>
 <g stroke="null">
  <title stroke="null">Layer 1</title>
  <path stroke="null" id="svg_1" fill-rule="evenodd" fill="#ffffff" d="m255.984154,8.862152c-139.915488,0 -253.362191,113.446703 -253.362191,253.393871c0,111.941894 72.579278,206.919056 173.290551,240.43668c12.67207,2.312653 16.663771,-5.195549 16.663771,-11.911745c0,-6.019233 0.126721,-22.841405 0,-43.987921c-70.472547,15.317364 -85.077107,-33.375063 -85.077107,-33.375063c-11.515743,-29.272481 -28.116154,-37.065803 -28.116154,-37.065803c-22.999806,-15.713366 1.726569,-15.412405 1.726569,-15.412405c25.42334,1.78993 38.824053,26.120303 38.824053,26.120303c22.603804,38.697332 59.289445,27.514231 73.719765,21.051476c2.312653,-16.37865 8.870449,-27.545911 16.109368,-33.881946c-56.263989,-6.399395 -115.410873,-28.131994 -115.410873,-125.231727c0,-27.672632 9.868374,-50.276436 26.072783,-67.985653c-2.613614,-6.399395 -11.325662,-32.171217 2.486894,-67.066928c0,0 21.273237,-6.811237 69.664702,25.993583c20.211951,-5.623231 41.89703,-8.426926 63.439548,-8.521967c21.526678,0.095041 43.195917,2.898736 63.439548,8.521967c48.391466,-32.78898 69.633022,-25.993583 69.633022,-25.993583c13.812556,34.895712 5.116348,60.667533 2.518574,67.066928c16.204409,17.709217 26.041103,40.313021 26.041103,67.985653c0,97.353174 -59.241925,118.768972 -115.695995,125.025806c9.09221,7.840843 17.344895,23.047326 17.344895,46.680736c0,31.680174 0,61.808019 0,70.139905c0,6.779557 4.086742,14.271918 16.948893,11.816705c100.616232,-33.565144 173.13215,-128.494785 173.13215,-240.404999c0,-139.947168 -113.446703,-253.393871 -253.393871,-253.393871z" clip-rule="evenodd"/>
 </g>
</svg>